<svg width="24" height="24" viewBox="0 0 24 24" fill="none" xmlns="http://www.w3.org/2000/svg">
<path d="M14.94 11.9L6.87 3.84001C6.60694 3.56845 6.29248 3.35195 5.94493 3.20312C5.59738 3.05428 5.22369 2.97609 4.84563 2.97308C4.46756 2.97008 4.09268 3.04233 3.74281 3.18562C3.39294 3.32892 3.07507 3.5404 2.80773 3.80774C2.54039 4.07508 2.32892 4.39294 2.18562 4.74281C2.04232 5.09268 1.97007 5.46757 1.97308 5.84563C1.97608 6.2237 2.05428 6.59739 2.20311 6.94494C2.35195 7.29249 2.56845 7.60695 2.84 7.87001L10.9 15.95" stroke="black" stroke-width="2" stroke-linecap="round" stroke-linejoin="round"/>
<path d="M16.93 14.94C18.59 14.94 19.93 16.29 19.93 17.96C19.93 19.29 22.43 19.48 21.93 19.98C20.85 21.08 19.44 22 17.93 22C15.73 22 13.93 20.2 13.93 17.96C13.9287 17.5647 14.0052 17.1731 14.1553 16.8074C14.3054 16.4417 14.526 16.1091 14.8045 15.8287C15.0831 15.5482 15.4142 15.3254 15.7789 15.1729C16.1436 15.0205 16.5347 14.9413 16.93 14.94Z" stroke="black" stroke-width="2" stroke-linecap="round" stroke-linejoin="round"/>
</svg>
